# Blender 4.0.1
# www.blender.org
mtllib shelves_01.mtl
o shelf_frame
v 2.880000 0.000000 -0.476000
v 2.880000 4.000000 -0.476000
v 2.780000 0.000000 -0.476000
v 2.780000 4.000000 -0.476000
v 2.880000 0.000000 -0.576000
v 2.880000 4.000000 -0.576000
v 2.780000 0.000000 -0.576000
v 2.780000 4.000000 -0.576000
v 2.880000 0.000000 0.476000
v 2.880000 4.000000 0.476000
v 2.780000 0.000000 0.476000
v 2.780000 4.000000 0.476000
v 2.880000 0.000000 0.576000
v 2.880000 4.000000 0.576000
v 2.780000 0.000000 0.576000
v 2.780000 4.000000 0.576000
v -2.880000 0.000000 -0.476000
v -2.880000 4.000000 -0.476000
v -2.780000 0.000000 -0.476000
v -2.780000 4.000000 -0.476000
v -2.880000 0.000000 -0.576000
v -2.880000 4.000000 -0.576000
v -2.780000 0.000000 -0.576000
v -2.780000 4.000000 -0.576000
v -2.880000 0.000000 0.476000
v -2.880000 4.000000 0.476000
v -2.780000 0.000000 0.476000
v -2.780000 4.000000 0.476000
v -2.880000 0.000000 0.576000
v -2.880000 4.000000 0.576000
v -2.780000 0.000000 0.576000
v -2.780000 4.000000 0.576000
vn -0.0000 -0.0000 1.0000
vn -1.0000 -0.0000 -0.0000
vn -0.0000 -0.0000 -1.0000
vn 1.0000 -0.0000 -0.0000
vn -0.0000 -1.0000 -0.0000
vn -0.0000 1.0000 -0.0000
vt 0.375000 0.000000
vt 0.625000 0.000000
vt 0.625000 0.250000
vt 0.375000 0.250000
vt 0.625000 0.500000
vt 0.375000 0.500000
vt 0.625000 0.750000
vt 0.375000 0.750000
vt 0.625000 1.000000
vt 0.375000 1.000000
vt 0.125000 0.500000
vt 0.125000 0.750000
vt 0.875000 0.500000
vt 0.875000 0.750000
s 0
usemtl ShelfFrame
f 1/1/1 2/2/1 4/3/1 3/4/1
f 3/4/2 4/3/2 8/5/2 7/6/2
f 7/6/3 8/5/3 6/7/3 5/8/3
f 5/8/4 6/7/4 2/9/4 1/10/4
f 3/11/5 7/6/5 5/8/5 1/12/5
f 8/5/6 4/13/6 2/14/6 6/7/6
f 9/1/3 11/4/3 12/3/3 10/2/3
f 11/4/2 15/6/2 16/5/2 12/3/2
f 15/6/1 13/8/1 14/7/1 16/5/1
f 13/8/4 9/10/4 10/9/4 14/7/4
f 11/11/5 9/12/5 13/8/5 15/6/5
f 16/5/6 14/7/6 10/14/6 12/13/6
f 17/1/1 19/4/1 20/3/1 18/2/1
f 19/4/4 23/6/4 24/5/4 20/3/4
f 23/6/3 21/8/3 22/7/3 24/5/3
f 21/8/2 17/10/2 18/9/2 22/7/2
f 19/11/5 17/12/5 21/8/5 23/6/5
f 24/5/6 22/7/6 18/14/6 20/13/6
f 25/1/3 26/2/3 28/3/3 27/4/3
f 27/4/4 28/3/4 32/5/4 31/6/4
f 31/6/1 32/5/1 30/7/1 29/8/1
f 29/8/2 30/7/2 26/9/2 25/10/2
f 27/11/5 31/6/5 29/8/5 25/12/5
f 32/5/6 28/13/6 26/14/6 30/7/6
o shelves
v 2.851200 0.500000 0.547200
v 2.851200 0.600000 0.547200
v -2.851200 0.500000 0.547200
v -2.851200 0.600000 0.547200
v 2.851200 0.500000 -0.547200
v 2.851200 0.600000 -0.547200
v -2.851200 0.500000 -0.547200
v -2.851200 0.600000 -0.547200
v 2.851200 1.600000 0.547200
v 2.851200 1.700000 0.547200
v -2.851200 1.600000 0.547200
v -2.851200 1.700000 0.547200
v 2.851200 1.600000 -0.547200
v 2.851200 1.700000 -0.547200
v -2.851200 1.600000 -0.547200
v -2.851200 1.700000 -0.547200
v 2.851200 2.700000 0.547200
v 2.851200 2.800000 0.547200
v -2.851200 2.700000 0.547200
v -2.851200 2.800000 0.547200
v 2.851200 2.700000 -0.547200
v 2.851200 2.800000 -0.547200
v -2.851200 2.700000 -0.547200
v -2.851200 2.800000 -0.547200
v 2.851200 3.800000 0.547200
v 2.851200 3.900000 0.547200
v -2.851200 3.800000 0.547200
v -2.851200 3.900000 0.547200
v 2.851200 3.800000 -0.547200
v 2.851200 3.900000 -0.547200
v -2.851200 3.800000 -0.547200
v -2.851200 3.900000 -0.547200
vn -0.0000 -0.0000 1.0000
vn -1.0000 -0.0000 -0.0000
vn -0.0000 -0.0000 -1.0000
vn 1.0000 -0.0000 -0.0000
vn -0.0000 -1.0000 -0.0000
vn -0.0000 1.0000 -0.0000
vt 0.375000 0.000000
vt 0.625000 0.000000
vt 0.625000 0.250000
vt 0.375000 0.250000
vt 0.625000 0.500000
vt 0.375000 0.500000
vt 0.625000 0.750000
vt 0.375000 0.750000
vt 0.625000 1.000000
vt 0.375000 1.000000
vt 0.125000 0.500000
vt 0.125000 0.750000
vt 0.875000 0.500000
vt 0.875000 0.750000
s 0
usemtl Shelf
f 33/15/7 34/16/7 36/17/7 35/18/7
f 35/18/8 36/17/8 40/19/8 39/20/8
f 39/20/9 40/19/9 38/21/9 37/22/9
f 37/22/10 38/21/10 34/23/10 33/24/10
f 35/25/11 39/20/11 37/22/11 33/26/11
f 40/19/12 36/27/12 34/28/12 38/21/12
f 41/15/7 42/16/7 44/17/7 43/18/7
f 43/18/8 44/17/8 48/19/8 47/20/8
f 47/20/9 48/19/9 46/21/9 45/22/9
f 45/22/10 46/21/10 42/23/10 41/24/10
f 43/25/11 47/20/11 45/22/11 41/26/11
f 48/19/12 44/27/12 42/28/12 46/21/12
f 49/15/7 50/16/7 52/17/7 51/18/7
f 51/18/8 52/17/8 56/19/8 55/20/8
f 55/20/9 56/19/9 54/21/9 53/22/9
f 53/22/10 54/21/10 50/23/10 49/24/10
f 51/25/11 55/20/11 53/22/11 49/26/11
f 56/19/12 52/27/12 50/28/12 54/21/12
f 57/15/7 58/16/7 60/17/7 59/18/7
f 59/18/8 60/17/8 64/19/8 63/20/8
f 63/20/9 64/19/9 62/21/9 61/22/9
f 61/22/10 62/21/10 58/23/10 57/24/10
f 59/25/11 63/20/11 61/22/11 57/26/11
f 64/19/12 60/27/12 58/28/12 62/21/12
